<svg width="64" height="60" viewBox="0 0 64 60" fill="none" xmlns="http://www.w3.org/2000/svg">
<path d="M64 16H60L52 20V36L60 40H64V16Z" fill="#F0F1F1"/>
<path d="M56 4C56 6.209 54.209 8 52 8H40V0H52C54.209 0 56 1.791 56 4Z" fill="#3E3E3F"/>
<path d="M35 44H13V48H35V44Z" fill="#F0F1F1"/>
<path d="M38 60L32 48H16L10 60H16L21 50V60H27V50L32 60H38Z" fill="#3E3E3F"/>
<path d="M8.422 8.211C8.145 8.072 7.838 8 7.528 8H2C0.896 8 0 8.896 0 10V42C0 43.104 0.896 44 2 44H42C43.104 44 44 43.104 44 42V36H52V20H44V14C44 12.896 43.104 12 42 12H19.07L23.07 6H40V2H20.93L14.698 11.349" fill="#3E3E3F"/>
<path d="M36 21C37.1046 21 38 20.1046 38 19C38 17.8954 37.1046 17 36 17C34.8954 17 34 17.8954 34 19C34 20.1046 34.8954 21 36 21Z" fill="#F79392"/>
<path d="M52 0H40V4H56C56 1.791 54.209 0 52 0Z" fill="#5B5C5F"/>
<path d="M52 20V28H64V16H60L52 20Z" fill="white"/>
<path d="M38 35H20V38H38V35Z" fill="#818284"/>
</svg>
